<svg xmlns="http://www.w3.org/2000/svg" viewBox="0 0 1600 1000" width="1600" height="1000">
  <defs>
    <filter id="shadow" x="-20%" y="-20%" width="140%" height="140%">
      <feDropShadow dx="1" dy="1" stdDeviation="1" flood-opacity="0.2"/>
    </filter>
  </defs>

  <!-- Background -->
  <rect x="0" y="0" width="1600" height="1000" fill="#ffffff"/>

  <!-- Grid lines -->
  <g stroke="#333333" stroke-width="1" fill="none">
    <!-- Outer border -->
    <rect x="0" y="60" width="1600" height="910"/>

    <!-- Vertical lines for main blocks -->
    <line x1="320" y1="60" x2="320" y2="742.5"/>
    <line x1="640" y1="60" x2="640" y2="742.5"/>
    <line x1="960" y1="60" x2="960" y2="742.5"/>
    <line x1="1280" y1="60" x2="1280" y2="742.5"/>

    <!-- Horizontal dividers for split blocks (KA/KR and CR/CH) -->
    <line x1="320" y1="401.25" x2="640" y2="401.25"/>
    <line x1="960" y1="401.25" x2="1280" y2="401.25"/>

    <!-- Bottom row divider -->
    <line x1="0" y1="742.5" x2="1600" y2="742.5"/>
    <line x1="800" y1="742.5" x2="800" y2="970"/>
  </g>

  <!-- Header -->
  <text x="20" y="40" font-family="Georgia, serif" font-size="24" font-weight="bold" fill="#333333">The Business Model Canvas</text>
  <g font-family="Arial, sans-serif" font-size="10" fill="#666666">
    <text x="1250" y="25">Designed for:</text>
    <text x="1250" y="45" font-weight="bold" fill="#333333">Airbnb</text>
    <text x="1450" y="25">Date:</text>
    <text x="1450" y="45" fill="#333333">2024-06-20</text>
  </g>

  <!-- Block Labels -->
  <g>
    <text x="10" y="80" font-family="Arial, sans-serif" font-size="11" font-weight="bold" fill="#333333">Key Partnerships</text>
    <text x="330" y="80" font-family="Arial, sans-serif" font-size="11" font-weight="bold" fill="#333333">Key Activities</text>
    <text x="330" y="421.25" font-family="Arial, sans-serif" font-size="11" font-weight="bold" fill="#333333">Key Resources</text>
    <text x="650" y="80" font-family="Arial, sans-serif" font-size="11" font-weight="bold" fill="#333333">Value Propositions</text>
    <text x="970" y="80" font-family="Arial, sans-serif" font-size="11" font-weight="bold" fill="#333333">Customer Relationships</text>
    <text x="970" y="421.25" font-family="Arial, sans-serif" font-size="11" font-weight="bold" fill="#333333">Channels</text>
    <text x="1290" y="80" font-family="Arial, sans-serif" font-size="11" font-weight="bold" fill="#333333">Customer Segments</text>
    <text x="10" y="762.5" font-family="Arial, sans-serif" font-size="11" font-weight="bold" fill="#333333">Cost Structure</text>
    <text x="810" y="762.5" font-family="Arial, sans-serif" font-size="11" font-weight="bold" fill="#333333">Revenue Streams</text>
  </g>

  <!-- Sticky Notes -->
  <g>
    <!-- Customer Segments Stickies -->
    <g class="block-customer_segments">
      <rect x="1290" y="90" width="120" height="60" rx="3" fill="#FFE066" filter="url(#shadow)"/>
      <text x="1298" y="110" font-family="Arial, sans-serif" font-size="10" fill="#333333">Travelers &amp;</text>
      <text x="1298" y="124" font-family="Arial, sans-serif" font-size="10" fill="#333333">Guests</text>
      <rect x="1420" y="90" width="120" height="60" rx="3" fill="#7EC8E3" filter="url(#shadow)"/>
      <text x="1428" y="110" font-family="Arial, sans-serif" font-size="10" fill="#333333">Property Hosts</text>
    </g>

    <!-- Value Propositions Stickies -->
    <g class="block-value_propositions">
      <rect x="650" y="90" width="120" height="60" rx="3" fill="#FFE066" filter="url(#shadow)"/>
      <text x="658" y="110" font-family="Arial, sans-serif" font-size="10" fill="#333333">Unique Stays</text>
      <text x="658" y="124" font-family="Arial, sans-serif" font-size="10" fill="#333333">Anywhere</text>
      <rect x="780" y="90" width="120" height="60" rx="3" fill="#7EC8E3" filter="url(#shadow)"/>
      <text x="788" y="110" font-family="Arial, sans-serif" font-size="10" fill="#333333">Earn Money</text>
      <text x="788" y="124" font-family="Arial, sans-serif" font-size="10" fill="#333333">Hosting</text>
    </g>

    <!-- Channels Stickies -->
    <g class="block-channels">
      <rect x="970" y="431.25" width="120" height="60" rx="3" fill="#FFE066" filter="url(#shadow)"/>
      <text x="978" y="451.25" font-family="Arial, sans-serif" font-size="10" fill="#333333">Guest Mobile</text>
      <text x="978" y="465.25" font-family="Arial, sans-serif" font-size="10" fill="#333333">App &amp; Website</text>
      <rect x="1100" y="431.25" width="120" height="60" rx="3" fill="#FFE066" filter="url(#shadow)"/>
      <text x="1108" y="451.25" font-family="Arial, sans-serif" font-size="10" fill="#333333">Search Engine</text>
      <text x="1108" y="465.25" font-family="Arial, sans-serif" font-size="10" fill="#333333">&amp; Digital</text>
      <text x="1108" y="479.25" font-family="Arial, sans-serif" font-size="10" fill="#333333">Marketing</text>
      <rect x="970" y="501.25" width="120" height="60" rx="3" fill="#FFE066" filter="url(#shadow)"/>
      <text x="978" y="521.25" font-family="Arial, sans-serif" font-size="10" fill="#333333">Social Media</text>
      <text x="978" y="535.25" font-family="Arial, sans-serif" font-size="10" fill="#333333">(Instagram,</text>
      <text x="978" y="549.25" font-family="Arial, sans-serif" font-size="10" fill="#333333">TikTok)</text>
      <rect x="1100" y="501.25" width="120" height="60" rx="3" fill="#7EC8E3" filter="url(#shadow)"/>
      <text x="1108" y="521.25" font-family="Arial, sans-serif" font-size="10" fill="#333333">Host App &amp;</text>
      <text x="1108" y="535.25" font-family="Arial, sans-serif" font-size="10" fill="#333333">Dashboard</text>
      <rect x="970" y="571.25" width="120" height="60" rx="3" fill="#7EC8E3" filter="url(#shadow)"/>
      <text x="978" y="591.25" font-family="Arial, sans-serif" font-size="10" fill="#333333">Host Community</text>
      <text x="978" y="605.25" font-family="Arial, sans-serif" font-size="10" fill="#333333">&amp; Education</text>
      <rect x="1100" y="571.25" width="120" height="60" rx="3" fill="#7EC8E3" filter="url(#shadow)"/>
      <text x="1108" y="591.25" font-family="Arial, sans-serif" font-size="10" fill="#333333">Host Referral</text>
      <text x="1108" y="605.25" font-family="Arial, sans-serif" font-size="10" fill="#333333">Program</text>
    </g>

    <!-- Customer Relationships Stickies -->
    <g class="block-customer_relationships">
      <rect x="970" y="90" width="120" height="60" rx="3" fill="#FFE066" filter="url(#shadow)"/>
      <text x="978" y="110" font-family="Arial, sans-serif" font-size="10" fill="#333333">Self-Service</text>
      <text x="978" y="124" font-family="Arial, sans-serif" font-size="10" fill="#333333">Platform</text>
      <rect x="1100" y="90" width="120" height="60" rx="3" fill="#FFE066" filter="url(#shadow)"/>
      <text x="1108" y="110" font-family="Arial, sans-serif" font-size="10" fill="#333333">24/7 Customer</text>
      <text x="1108" y="124" font-family="Arial, sans-serif" font-size="10" fill="#333333">Support</text>
      <rect x="970" y="160" width="120" height="60" rx="3" fill="#FFE066" filter="url(#shadow)"/>
      <text x="978" y="180" font-family="Arial, sans-serif" font-size="10" fill="#333333">Reviews &amp;</text>
      <text x="978" y="194" font-family="Arial, sans-serif" font-size="10" fill="#333333">Trust</text>
      <text x="978" y="208" font-family="Arial, sans-serif" font-size="10" fill="#333333">Community</text>
      <rect x="1100" y="160" width="120" height="60" rx="3" fill="#7EC8E3" filter="url(#shadow)"/>
      <text x="1108" y="180" font-family="Arial, sans-serif" font-size="10" fill="#333333">Self-Service</text>
      <text x="1108" y="194" font-family="Arial, sans-serif" font-size="10" fill="#333333">Host Tools</text>
      <rect x="970" y="230" width="120" height="60" rx="3" fill="#7EC8E3" filter="url(#shadow)"/>
      <text x="978" y="250" font-family="Arial, sans-serif" font-size="10" fill="#333333">Host Support &amp;</text>
      <text x="978" y="264" font-family="Arial, sans-serif" font-size="10" fill="#333333">Education</text>
      <rect x="1100" y="230" width="120" height="60" rx="3" fill="#7EC8E3" filter="url(#shadow)"/>
      <text x="1108" y="250" font-family="Arial, sans-serif" font-size="10" fill="#333333">Superhost</text>
      <text x="1108" y="264" font-family="Arial, sans-serif" font-size="10" fill="#333333">Recognition</text>
      <text x="1108" y="278" font-family="Arial, sans-serif" font-size="10" fill="#333333">Program</text>
    </g>

    <!-- Revenue Streams Stickies -->
    <g class="block-revenue_streams">
      <rect x="810" y="772.5" width="120" height="60" rx="3" fill="#FFE066" filter="url(#shadow)"/>
      <text x="818" y="792.5" font-family="Arial, sans-serif" font-size="10" fill="#333333">Guest Service</text>
      <text x="818" y="806.5" font-family="Arial, sans-serif" font-size="10" fill="#333333">Fee (8-15%)</text>
      <rect x="940" y="772.5" width="120" height="60" rx="3" fill="#7EC8E3" filter="url(#shadow)"/>
      <text x="948" y="792.5" font-family="Arial, sans-serif" font-size="10" fill="#333333">Host Service</text>
      <text x="948" y="806.5" font-family="Arial, sans-serif" font-size="10" fill="#333333">Fee (3-5%)</text>
      <rect x="1070" y="772.5" width="120" height="60" rx="3" fill="#FFE066" filter="url(#shadow)"/>
      <text x="1078" y="792.5" font-family="Arial, sans-serif" font-size="10" fill="#333333">Experiences</text>
      <text x="1078" y="806.5" font-family="Arial, sans-serif" font-size="10" fill="#333333">Commission</text>
      <rect x="1200" y="772.5" width="120" height="60" rx="3" fill="#FFE066" filter="url(#shadow)"/>
      <text x="1208" y="792.5" font-family="Arial, sans-serif" font-size="10" fill="#333333">Airbnb Luxe</text>
      <text x="1208" y="806.5" font-family="Arial, sans-serif" font-size="10" fill="#333333">Premium</text>
      <text x="1208" y="820.5" font-family="Arial, sans-serif" font-size="10" fill="#333333">Service</text>
    </g>

    <!-- Key Resources Stickies -->
    <g class="block-key_resources">
      <rect x="334" y="435.25" width="120" height="60" rx="3" fill="#7EC8E3" filter="url(#shadow)"/>
      <rect x="330" y="431.25" width="120" height="60" rx="3" fill="#FFE066" filter="url(#shadow)"/>
      <text x="338" y="451.25" font-family="Arial, sans-serif" font-size="10" fill="#333333">Technology</text>
      <text x="338" y="465.25" font-family="Arial, sans-serif" font-size="10" fill="#333333">Platform</text>
      <rect x="460" y="431.25" width="120" height="60" rx="3" fill="#FFE066" filter="url(#shadow)"/>
      <text x="468" y="451.25" font-family="Arial, sans-serif" font-size="10" fill="#333333">4M+ Host</text>
      <text x="468" y="465.25" font-family="Arial, sans-serif" font-size="10" fill="#333333">Network</text>
      <rect x="334" y="505.25" width="120" height="60" rx="3" fill="#7EC8E3" filter="url(#shadow)"/>
      <rect x="330" y="501.25" width="120" height="60" rx="3" fill="#FFE066" filter="url(#shadow)"/>
      <text x="338" y="521.25" font-family="Arial, sans-serif" font-size="10" fill="#333333">500M+ Reviews</text>
      <text x="338" y="535.25" font-family="Arial, sans-serif" font-size="10" fill="#333333">Database</text>
      <rect x="464" y="505.25" width="120" height="60" rx="3" fill="#7EC8E3" filter="url(#shadow)"/>
      <rect x="460" y="501.25" width="120" height="60" rx="3" fill="#FFE066" filter="url(#shadow)"/>
      <text x="468" y="521.25" font-family="Arial, sans-serif" font-size="10" fill="#333333">Global Brand</text>
      <text x="468" y="535.25" font-family="Arial, sans-serif" font-size="10" fill="#333333">Recognition</text>
      <rect x="334" y="575.25" width="120" height="60" rx="3" fill="#7EC8E3" filter="url(#shadow)"/>
      <rect x="330" y="571.25" width="120" height="60" rx="3" fill="#FFE066" filter="url(#shadow)"/>
      <text x="338" y="591.25" font-family="Arial, sans-serif" font-size="10" fill="#333333">6,000+</text>
      <text x="338" y="605.25" font-family="Arial, sans-serif" font-size="10" fill="#333333">Employees &amp;</text>
      <text x="338" y="619.25" font-family="Arial, sans-serif" font-size="10" fill="#333333">Engineering</text>
    </g>

    <!-- Key Activities Stickies -->
    <g class="block-key_activities">
      <rect x="334" y="94" width="120" height="60" rx="3" fill="#7EC8E3" filter="url(#shadow)"/>
      <rect x="330" y="90" width="120" height="60" rx="3" fill="#FFE066" filter="url(#shadow)"/>
      <text x="338" y="110" font-family="Arial, sans-serif" font-size="10" fill="#333333">Platform</text>
      <text x="338" y="124" font-family="Arial, sans-serif" font-size="10" fill="#333333">Development &amp;</text>
      <text x="338" y="138" font-family="Arial, sans-serif" font-size="10" fill="#333333">ML/AI</text>
      <rect x="464" y="94" width="120" height="60" rx="3" fill="#7EC8E3" filter="url(#shadow)"/>
      <rect x="460" y="90" width="120" height="60" rx="3" fill="#FFE066" filter="url(#shadow)"/>
      <text x="468" y="110" font-family="Arial, sans-serif" font-size="10" fill="#333333">Trust &amp; Safety</text>
      <text x="468" y="124" font-family="Arial, sans-serif" font-size="10" fill="#333333">Enforcement</text>
      <rect x="330" y="160" width="120" height="60" rx="3" fill="#FFE066" filter="url(#shadow)"/>
      <text x="338" y="180" font-family="Arial, sans-serif" font-size="10" fill="#333333">Host</text>
      <text x="338" y="194" font-family="Arial, sans-serif" font-size="10" fill="#333333">Acquisition &amp;</text>
      <text x="338" y="208" font-family="Arial, sans-serif" font-size="10" fill="#333333">Onboarding</text>
      <rect x="460" y="160" width="120" height="60" rx="3" fill="#FFE066" filter="url(#shadow)"/>
      <text x="468" y="180" font-family="Arial, sans-serif" font-size="10" fill="#333333">Brand</text>
      <text x="468" y="194" font-family="Arial, sans-serif" font-size="10" fill="#333333">Marketing &amp;</text>
      <text x="468" y="208" font-family="Arial, sans-serif" font-size="10" fill="#333333">Guest</text>
      <rect x="334" y="234" width="120" height="60" rx="3" fill="#7EC8E3" filter="url(#shadow)"/>
      <rect x="330" y="230" width="120" height="60" rx="3" fill="#FFE066" filter="url(#shadow)"/>
      <text x="338" y="250" font-family="Arial, sans-serif" font-size="10" fill="#333333">Secure Payment</text>
      <text x="338" y="264" font-family="Arial, sans-serif" font-size="10" fill="#333333">Processing</text>
      <text x="338" y="278" font-family="Arial, sans-serif" font-size="10" fill="#333333">(65+</text>
      <rect x="464" y="234" width="120" height="60" rx="3" fill="#7EC8E3" filter="url(#shadow)"/>
      <rect x="460" y="230" width="120" height="60" rx="3" fill="#FFE066" filter="url(#shadow)"/>
      <text x="468" y="250" font-family="Arial, sans-serif" font-size="10" fill="#333333">24/7 Global</text>
      <text x="468" y="264" font-family="Arial, sans-serif" font-size="10" fill="#333333">Customer</text>
      <text x="468" y="278" font-family="Arial, sans-serif" font-size="10" fill="#333333">Support</text>
    </g>

    <!-- Key Partnerships Stickies -->
    <g class="block-key_partnerships">
      <rect x="14" y="94" width="120" height="60" rx="3" fill="#7EC8E3" filter="url(#shadow)"/>
      <rect x="10" y="90" width="120" height="60" rx="3" fill="#FFE066" filter="url(#shadow)"/>
      <text x="18" y="110" font-family="Arial, sans-serif" font-size="10" fill="#333333">Payment</text>
      <text x="18" y="124" font-family="Arial, sans-serif" font-size="10" fill="#333333">Providers</text>
      <text x="18" y="138" font-family="Arial, sans-serif" font-size="10" fill="#333333">(PayPal,</text>
      <rect x="144" y="94" width="120" height="60" rx="3" fill="#7EC8E3" filter="url(#shadow)"/>
      <rect x="140" y="90" width="120" height="60" rx="3" fill="#FFE066" filter="url(#shadow)"/>
      <text x="148" y="110" font-family="Arial, sans-serif" font-size="10" fill="#333333">Insurance</text>
      <text x="148" y="124" font-family="Arial, sans-serif" font-size="10" fill="#333333">Partners</text>
      <text x="148" y="138" font-family="Arial, sans-serif" font-size="10" fill="#333333">(AirCover)</text>
      <rect x="14" y="164" width="120" height="60" rx="3" fill="#7EC8E3" filter="url(#shadow)"/>
      <rect x="10" y="160" width="120" height="60" rx="3" fill="#FFE066" filter="url(#shadow)"/>
      <text x="18" y="180" font-family="Arial, sans-serif" font-size="10" fill="#333333">Cloud</text>
      <text x="18" y="194" font-family="Arial, sans-serif" font-size="10" fill="#333333">Infrastructure</text>
      <text x="18" y="208" font-family="Arial, sans-serif" font-size="10" fill="#333333">(AWS, Googl...</text>
      <rect x="140" y="160" width="120" height="60" rx="3" fill="#FFE066" filter="url(#shadow)"/>
      <text x="148" y="180" font-family="Arial, sans-serif" font-size="10" fill="#333333">Professional</text>
      <text x="148" y="194" font-family="Arial, sans-serif" font-size="10" fill="#333333">Photography</text>
      <text x="148" y="208" font-family="Arial, sans-serif" font-size="10" fill="#333333">Services</text>
      <rect x="14" y="234" width="120" height="60" rx="3" fill="#7EC8E3" filter="url(#shadow)"/>
      <rect x="10" y="230" width="120" height="60" rx="3" fill="#FFE066" filter="url(#shadow)"/>
      <text x="18" y="250" font-family="Arial, sans-serif" font-size="10" fill="#333333">Local</text>
      <text x="18" y="264" font-family="Arial, sans-serif" font-size="10" fill="#333333">Government &amp;</text>
      <text x="18" y="278" font-family="Arial, sans-serif" font-size="10" fill="#333333">Regulatory</text>
    </g>

    <!-- Cost Structure Stickies -->
    <g class="block-costs">
      <rect x="14" y="776.5" width="120" height="60" rx="3" fill="#7EC8E3" filter="url(#shadow)"/>
      <rect x="10" y="772.5" width="120" height="60" rx="3" fill="#FFE066" filter="url(#shadow)"/>
      <text x="18" y="792.5" font-family="Arial, sans-serif" font-size="10" fill="#333333">Platform</text>
      <text x="18" y="806.5" font-family="Arial, sans-serif" font-size="10" fill="#333333">Development &amp;</text>
      <text x="18" y="820.5" font-family="Arial, sans-serif" font-size="10" fill="#333333">Infrastructure</text>
      <rect x="140" y="772.5" width="120" height="60" rx="3" fill="#FFE066" filter="url(#shadow)"/>
      <text x="148" y="792.5" font-family="Arial, sans-serif" font-size="10" fill="#333333">Sales &amp;</text>
      <text x="148" y="806.5" font-family="Arial, sans-serif" font-size="10" fill="#333333">Marketing</text>
      <text x="148" y="820.5" font-family="Arial, sans-serif" font-size="10" fill="#333333">($800M+</text>
      <rect x="274" y="776.5" width="120" height="60" rx="3" fill="#7EC8E3" filter="url(#shadow)"/>
      <rect x="270" y="772.5" width="120" height="60" rx="3" fill="#FFE066" filter="url(#shadow)"/>
      <text x="278" y="792.5" font-family="Arial, sans-serif" font-size="10" fill="#333333">Customer</text>
      <text x="278" y="806.5" font-family="Arial, sans-serif" font-size="10" fill="#333333">Support</text>
      <text x="278" y="820.5" font-family="Arial, sans-serif" font-size="10" fill="#333333">Operations</text>
      <rect x="404" y="776.5" width="120" height="60" rx="3" fill="#7EC8E3" filter="url(#shadow)"/>
      <rect x="400" y="772.5" width="120" height="60" rx="3" fill="#FFE066" filter="url(#shadow)"/>
      <text x="408" y="792.5" font-family="Arial, sans-serif" font-size="10" fill="#333333">Host &amp; Guest</text>
      <text x="408" y="806.5" font-family="Arial, sans-serif" font-size="10" fill="#333333">Insurance</text>
      <text x="408" y="820.5" font-family="Arial, sans-serif" font-size="10" fill="#333333">Programs</text>
      <rect x="534" y="776.5" width="120" height="60" rx="3" fill="#7EC8E3" filter="url(#shadow)"/>
      <rect x="530" y="772.5" width="120" height="60" rx="3" fill="#FFE066" filter="url(#shadow)"/>
      <text x="538" y="792.5" font-family="Arial, sans-serif" font-size="10" fill="#333333">Payment</text>
      <text x="538" y="806.5" font-family="Arial, sans-serif" font-size="10" fill="#333333">Processing</text>
      <text x="538" y="820.5" font-family="Arial, sans-serif" font-size="10" fill="#333333">Fees</text>
      <rect x="664" y="776.5" width="120" height="60" rx="3" fill="#7EC8E3" filter="url(#shadow)"/>
      <rect x="660" y="772.5" width="120" height="60" rx="3" fill="#FFE066" filter="url(#shadow)"/>
      <text x="668" y="792.5" font-family="Arial, sans-serif" font-size="10" fill="#333333">Personnel &amp;</text>
      <text x="668" y="806.5" font-family="Arial, sans-serif" font-size="10" fill="#333333">Engineering</text>
      <text x="668" y="820.5" font-family="Arial, sans-serif" font-size="10" fill="#333333">Talent</text>
    </g>
  </g>

  <!-- Footer - Strategyzer Attribution -->
  <text x="800" y="989" text-anchor="middle" font-family="Arial, sans-serif" font-size="9" fill="#999999">
    Copyright Strategyzer AG | The Business Model Canvas | strategyzer.com | CC BY-SA 3.0
  </text>
</svg>