<svg xmlns="http://www.w3.org/2000/svg" viewBox="0 0 1600 1000" width="1600" height="1000">
  <defs>
    <filter id="shadow" x="-20%" y="-20%" width="140%" height="140%">
      <feDropShadow dx="1" dy="1" stdDeviation="1" flood-opacity="0.2"/>
    </filter>
  </defs>

  <!-- Background -->
  <rect x="0" y="0" width="1600" height="1000" fill="#ffffff"/>

  <!-- Grid lines -->
  <g stroke="#333333" stroke-width="1" fill="none">
    <!-- Outer border -->
    <rect x="0" y="60" width="1600" height="910"/>

    <!-- Vertical lines for main blocks -->
    <line x1="320" y1="60" x2="320" y2="742.5"/>
    <line x1="640" y1="60" x2="640" y2="742.5"/>
    <line x1="960" y1="60" x2="960" y2="742.5"/>
    <line x1="1280" y1="60" x2="1280" y2="742.5"/>

    <!-- Horizontal dividers for split blocks (KA/KR and CR/CH) -->
    <line x1="320" y1="401.25" x2="640" y2="401.25"/>
    <line x1="960" y1="401.25" x2="1280" y2="401.25"/>

    <!-- Bottom row divider -->
    <line x1="0" y1="742.5" x2="1600" y2="742.5"/>
    <line x1="800" y1="742.5" x2="800" y2="970"/>
  </g>

  <!-- Header -->
  <text x="20" y="40" font-family="Georgia, serif" font-size="24" font-weight="bold" fill="#333333">The Business Model Canvas</text>
  <g font-family="Arial, sans-serif" font-size="10" fill="#666666">
    <text x="1250" y="25">Designed for:</text>
    <text x="1250" y="45" font-weight="bold" fill="#333333">FreshBox</text>
    <text x="1450" y="25">Date:</text>
    <text x="1450" y="45" fill="#333333">2024-03-15</text>
  </g>

  <!-- Block Labels -->
  <g>
    <text x="10" y="80" font-family="Arial, sans-serif" font-size="11" font-weight="bold" fill="#333333">Key Partnerships</text>
    <text x="330" y="80" font-family="Arial, sans-serif" font-size="11" font-weight="bold" fill="#333333">Key Activities</text>
    <text x="330" y="421.25" font-family="Arial, sans-serif" font-size="11" font-weight="bold" fill="#333333">Key Resources</text>
    <text x="650" y="80" font-family="Arial, sans-serif" font-size="11" font-weight="bold" fill="#333333">Value Propositions</text>
    <text x="970" y="80" font-family="Arial, sans-serif" font-size="11" font-weight="bold" fill="#333333">Customer Relationships</text>
    <text x="970" y="421.25" font-family="Arial, sans-serif" font-size="11" font-weight="bold" fill="#333333">Channels</text>
    <text x="1290" y="80" font-family="Arial, sans-serif" font-size="11" font-weight="bold" fill="#333333">Customer Segments</text>
    <text x="10" y="762.5" font-family="Arial, sans-serif" font-size="11" font-weight="bold" fill="#333333">Cost Structure</text>
    <text x="810" y="762.5" font-family="Arial, sans-serif" font-size="11" font-weight="bold" fill="#333333">Revenue Streams</text>
  </g>

  <!-- Sticky Notes -->
  <g>
    <!-- Customer Segments Stickies -->
    <g class="block-customer_segments">
      <rect x="1290" y="90" width="120" height="60" rx="3" fill="#FFE066" filter="url(#shadow)"/>
      <text x="1298" y="110" font-family="Arial, sans-serif" font-size="10" fill="#333333">Busy</text>
      <text x="1298" y="124" font-family="Arial, sans-serif" font-size="10" fill="#333333">Professionals</text>
      <rect x="1420" y="90" width="120" height="60" rx="3" fill="#7EC8E3" filter="url(#shadow)"/>
      <text x="1428" y="110" font-family="Arial, sans-serif" font-size="10" fill="#333333">Aspiring Home</text>
      <text x="1428" y="124" font-family="Arial, sans-serif" font-size="10" fill="#333333">Cooks</text>
    </g>

    <!-- Value Propositions Stickies -->
    <g class="block-value_propositions">
      <rect x="650" y="90" width="120" height="60" rx="3" fill="#FFE066" filter="url(#shadow)"/>
      <text x="658" y="110" font-family="Arial, sans-serif" font-size="10" fill="#333333">Effortless</text>
      <text x="658" y="124" font-family="Arial, sans-serif" font-size="10" fill="#333333">Meal Planning</text>
      <rect x="780" y="90" width="120" height="60" rx="3" fill="#7EC8E3" filter="url(#shadow)"/>
      <text x="788" y="110" font-family="Arial, sans-serif" font-size="10" fill="#333333">Chef-Quality</text>
      <text x="788" y="124" font-family="Arial, sans-serif" font-size="10" fill="#333333">Cooking at</text>
      <text x="788" y="138" font-family="Arial, sans-serif" font-size="10" fill="#333333">Home</text>
    </g>

    <!-- Channels Stickies -->
    <g class="block-channels">
      <rect x="974" y="435.25" width="120" height="60" rx="3" fill="#7EC8E3" filter="url(#shadow)"/>
      <rect x="970" y="431.25" width="120" height="60" rx="3" fill="#FFE066" filter="url(#shadow)"/>
      <text x="978" y="451.25" font-family="Arial, sans-serif" font-size="10" fill="#333333">Website &amp; App</text>
      <rect x="1100" y="431.25" width="120" height="60" rx="3" fill="#7EC8E3" filter="url(#shadow)"/>
      <text x="1108" y="451.25" font-family="Arial, sans-serif" font-size="10" fill="#333333">Social Media</text>
      <rect x="974" y="505.25" width="120" height="60" rx="3" fill="#7EC8E3" filter="url(#shadow)"/>
      <rect x="970" y="501.25" width="120" height="60" rx="3" fill="#FFE066" filter="url(#shadow)"/>
      <text x="978" y="521.25" font-family="Arial, sans-serif" font-size="10" fill="#333333">Customer</text>
      <text x="978" y="535.25" font-family="Arial, sans-serif" font-size="10" fill="#333333">Referral</text>
      <text x="978" y="549.25" font-family="Arial, sans-serif" font-size="10" fill="#333333">Program</text>
      <rect x="1104" y="505.25" width="120" height="60" rx="3" fill="#7EC8E3" filter="url(#shadow)"/>
      <rect x="1100" y="501.25" width="120" height="60" rx="3" fill="#FFE066" filter="url(#shadow)"/>
      <text x="1108" y="521.25" font-family="Arial, sans-serif" font-size="10" fill="#333333">Home Delivery</text>
    </g>

    <!-- Customer Relationships Stickies -->
    <g class="block-customer_relationships">
      <rect x="970" y="90" width="120" height="60" rx="3" fill="#FFE066" filter="url(#shadow)"/>
      <text x="978" y="110" font-family="Arial, sans-serif" font-size="10" fill="#333333">Personalized</text>
      <text x="978" y="124" font-family="Arial, sans-serif" font-size="10" fill="#333333">recommendations</text>
      <text x="978" y="138" font-family="Arial, sans-serif" font-size="10" fill="#333333">based on</text>
      <rect x="1100" y="90" width="120" height="60" rx="3" fill="#7EC8E3" filter="url(#shadow)"/>
      <text x="1108" y="110" font-family="Arial, sans-serif" font-size="10" fill="#333333">Recipe</text>
      <text x="1108" y="124" font-family="Arial, sans-serif" font-size="10" fill="#333333">reviews,</text>
      <text x="1108" y="138" font-family="Arial, sans-serif" font-size="10" fill="#333333">cooking tip...</text>
    </g>

    <!-- Revenue Streams Stickies -->
    <g class="block-revenue_streams">
      <rect x="814" y="776.5" width="120" height="60" rx="3" fill="#7EC8E3" filter="url(#shadow)"/>
      <rect x="810" y="772.5" width="120" height="60" rx="3" fill="#FFE066" filter="url(#shadow)"/>
      <text x="818" y="792.5" font-family="Arial, sans-serif" font-size="10" fill="#333333">Weekly</text>
      <text x="818" y="806.5" font-family="Arial, sans-serif" font-size="10" fill="#333333">Subscription</text>
      <rect x="940" y="772.5" width="120" height="60" rx="3" fill="#7EC8E3" filter="url(#shadow)"/>
      <text x="948" y="792.5" font-family="Arial, sans-serif" font-size="10" fill="#333333">Add-on</text>
      <text x="948" y="806.5" font-family="Arial, sans-serif" font-size="10" fill="#333333">Products</text>
    </g>

    <!-- Key Resources Stickies -->
    <g class="block-key_resources">
      <rect x="334" y="435.25" width="120" height="60" rx="3" fill="#7EC8E3" filter="url(#shadow)"/>
      <rect x="330" y="431.25" width="120" height="60" rx="3" fill="#FFE066" filter="url(#shadow)"/>
      <text x="338" y="451.25" font-family="Arial, sans-serif" font-size="10" fill="#333333">Ingredient</text>
      <text x="338" y="465.25" font-family="Arial, sans-serif" font-size="10" fill="#333333">Supply Chain</text>
      <rect x="460" y="431.25" width="120" height="60" rx="3" fill="#7EC8E3" filter="url(#shadow)"/>
      <text x="468" y="451.25" font-family="Arial, sans-serif" font-size="10" fill="#333333">Culinary Team</text>
      <rect x="330" y="501.25" width="120" height="60" rx="3" fill="#FFE066" filter="url(#shadow)"/>
      <text x="338" y="521.25" font-family="Arial, sans-serif" font-size="10" fill="#333333">Fulfillment</text>
      <text x="338" y="535.25" font-family="Arial, sans-serif" font-size="10" fill="#333333">Centers</text>
      <rect x="460" y="501.25" width="120" height="60" rx="3" fill="#FFE066" filter="url(#shadow)"/>
      <text x="468" y="521.25" font-family="Arial, sans-serif" font-size="10" fill="#333333">Technology</text>
      <text x="468" y="535.25" font-family="Arial, sans-serif" font-size="10" fill="#333333">Platform</text>
    </g>

    <!-- Key Activities Stickies -->
    <g class="block-key_activities">
      <rect x="330" y="90" width="120" height="60" rx="3" fill="#7EC8E3" filter="url(#shadow)"/>
      <text x="338" y="110" font-family="Arial, sans-serif" font-size="10" fill="#333333">Recipe</text>
      <text x="338" y="124" font-family="Arial, sans-serif" font-size="10" fill="#333333">Development</text>
      <rect x="460" y="90" width="120" height="60" rx="3" fill="#FFE066" filter="url(#shadow)"/>
      <text x="468" y="110" font-family="Arial, sans-serif" font-size="10" fill="#333333">Order</text>
      <text x="468" y="124" font-family="Arial, sans-serif" font-size="10" fill="#333333">Fulfillment</text>
      <rect x="334" y="164" width="120" height="60" rx="3" fill="#7EC8E3" filter="url(#shadow)"/>
      <rect x="330" y="160" width="120" height="60" rx="3" fill="#FFE066" filter="url(#shadow)"/>
      <text x="338" y="180" font-family="Arial, sans-serif" font-size="10" fill="#333333">Customer</text>
      <text x="338" y="194" font-family="Arial, sans-serif" font-size="10" fill="#333333">Acquisition</text>
      <rect x="460" y="160" width="120" height="60" rx="3" fill="#FFE066" filter="url(#shadow)"/>
      <text x="468" y="180" font-family="Arial, sans-serif" font-size="10" fill="#333333">Personalization</text>
      <text x="468" y="194" font-family="Arial, sans-serif" font-size="10" fill="#333333">Engine</text>
    </g>

    <!-- Key Partnerships Stickies -->
    <g class="block-key_partnerships">
      <rect x="14" y="94" width="120" height="60" rx="3" fill="#7EC8E3" filter="url(#shadow)"/>
      <rect x="10" y="90" width="120" height="60" rx="3" fill="#FFE066" filter="url(#shadow)"/>
      <text x="18" y="110" font-family="Arial, sans-serif" font-size="10" fill="#333333">Local Farms &amp;</text>
      <text x="18" y="124" font-family="Arial, sans-serif" font-size="10" fill="#333333">Producers</text>
      <rect x="140" y="90" width="120" height="60" rx="3" fill="#FFE066" filter="url(#shadow)"/>
      <text x="148" y="110" font-family="Arial, sans-serif" font-size="10" fill="#333333">Delivery</text>
      <text x="148" y="124" font-family="Arial, sans-serif" font-size="10" fill="#333333">Partners</text>
      <rect x="14" y="164" width="120" height="60" rx="3" fill="#7EC8E3" filter="url(#shadow)"/>
      <rect x="10" y="160" width="120" height="60" rx="3" fill="#FFE066" filter="url(#shadow)"/>
      <text x="18" y="180" font-family="Arial, sans-serif" font-size="10" fill="#333333">Sustainable</text>
      <text x="18" y="194" font-family="Arial, sans-serif" font-size="10" fill="#333333">Packaging</text>
      <text x="18" y="208" font-family="Arial, sans-serif" font-size="10" fill="#333333">Supplier</text>
    </g>

    <!-- Cost Structure Stickies -->
    <g class="block-costs">
      <rect x="14" y="776.5" width="120" height="60" rx="3" fill="#7EC8E3" filter="url(#shadow)"/>
      <rect x="10" y="772.5" width="120" height="60" rx="3" fill="#FFE066" filter="url(#shadow)"/>
      <text x="18" y="792.5" font-family="Arial, sans-serif" font-size="10" fill="#333333">Ingredient</text>
      <text x="18" y="806.5" font-family="Arial, sans-serif" font-size="10" fill="#333333">Sourcing &amp;</text>
      <text x="18" y="820.5" font-family="Arial, sans-serif" font-size="10" fill="#333333">Packaging</text>
      <rect x="140" y="772.5" width="120" height="60" rx="3" fill="#FFE066" filter="url(#shadow)"/>
      <text x="148" y="792.5" font-family="Arial, sans-serif" font-size="10" fill="#333333">Fulfillment &amp;</text>
      <text x="148" y="806.5" font-family="Arial, sans-serif" font-size="10" fill="#333333">Logistics</text>
      <rect x="270" y="772.5" width="120" height="60" rx="3" fill="#7EC8E3" filter="url(#shadow)"/>
      <text x="278" y="792.5" font-family="Arial, sans-serif" font-size="10" fill="#333333">Recipe</text>
      <text x="278" y="806.5" font-family="Arial, sans-serif" font-size="10" fill="#333333">Development</text>
      <rect x="404" y="776.5" width="120" height="60" rx="3" fill="#7EC8E3" filter="url(#shadow)"/>
      <rect x="400" y="772.5" width="120" height="60" rx="3" fill="#FFE066" filter="url(#shadow)"/>
      <text x="408" y="792.5" font-family="Arial, sans-serif" font-size="10" fill="#333333">Customer</text>
      <text x="408" y="806.5" font-family="Arial, sans-serif" font-size="10" fill="#333333">Acquisition</text>
    </g>
  </g>

  <!-- Footer - Strategyzer Attribution -->
  <text x="800" y="989" text-anchor="middle" font-family="Arial, sans-serif" font-size="9" fill="#999999">
    Copyright Strategyzer AG | The Business Model Canvas | strategyzer.com | CC BY-SA 3.0
  </text>
</svg>